<svg width="15" height="20" viewBox="0 0 15 20" fill="none" xmlns="http://www.w3.org/2000/svg">
<path d="M14.5689 10.8227L1.56895 19.8227C1.41892 19.9265 1.24336 19.9873 1.06126 19.9984C0.879167 20.0096 0.697481 19.9708 0.535877 19.8861C0.374274 19.8015 0.238912 19.6742 0.144445 19.5181C0.0499793 19.362 1.00713e-05 19.1831 -5.14984e-05 19.0007V1.00066C-0.000172444 0.81814 0.0496634 0.639064 0.144056 0.482844C0.238449 0.326624 0.373798 0.199219 0.535435 0.114434C0.697071 0.0296497 0.87883 -0.0092792 1.06101 0.00186647C1.24319 0.0130121 1.41885 0.0738072 1.56895 0.177663L14.5689 9.17766C14.7014 9.27009 14.8096 9.39314 14.8842 9.53634C14.9589 9.67954 14.9979 9.83866 14.9979 10.0002C14.9979 10.1617 14.9589 10.3208 14.8842 10.464C14.8096 10.6072 14.7014 10.7302 14.5689 10.8227Z" fill="white"/>
</svg>
