<svg width="16" height="16" viewBox="0 0 16 16" fill="none" xmlns="http://www.w3.org/2000/svg">
<path d="M3 2V14H13V2H3ZM2.5 1H13.5C13.6326 1 13.7598 1.05268 13.8536 1.14645C13.9473 1.24021 14 1.36739 14 1.5V14.5C14 14.6326 13.9473 14.7598 13.8536 14.8536C13.7598 14.9473 13.6326 15 13.5 15H2.5C2.36739 15 2.24021 14.9473 2.14645 14.8536C2.05268 14.7598 2 14.6326 2 14.5V1.5C2 1.36739 2.05268 1.24021 2.14645 1.14645C2.24021 1.05268 2.36739 1 2.5 1Z" fill="white"/>
<path d="M10.5 2H11.5V14H10.5V2ZM1.5 3H3.5C3.83333 3 4 3.16667 4 3.5C4 3.83333 3.83333 4 3.5 4H1.5C1.16667 4 1 3.83333 1 3.5C1 3.16667 1.16667 3 1.5 3ZM1.5 6H3.5C3.83333 6 4 6.16667 4 6.5C4 6.83333 3.83333 7 3.5 7H1.5C1.16667 7 1 6.83333 1 6.5C1 6.16667 1.16667 6 1.5 6ZM1.5 9H3.5C3.83333 9 4 9.16667 4 9.5C4 9.83333 3.83333 10 3.5 10H1.5C1.16667 10 1 9.83333 1 9.5C1 9.16667 1.16667 9 1.5 9ZM1.5 12H3.5C3.83333 12 4 12.1667 4 12.5C4 12.8333 3.83333 13 3.5 13H1.5C1.16667 13 1 12.8333 1 12.5C1 12.1667 1.16667 12 1.5 12Z" fill="white"/>
</svg>
